<svg xmlns="http://www.w3.org/2000/svg" xmlns:xlink="http://www.w3.org/1999/xlink" width="88.04" height="91.83" preserveAspectRatio="xMidYMid meet" version="1.1" viewBox="78.907 66.533 92.037 95.832"><defs><path id="a2gLxlzdS" d="M131.23 134.9C131.23 148.4 119.73 159.36 105.57 159.36C91.41 159.36 79.91 148.4 79.91 134.9C79.91 121.39 91.41 110.43 105.57 110.43C119.73 110.43 131.23 121.39 131.23 134.9Z"/><path id="cfsvtS2n" d="M111.07 79.93C111.07 86.76 105.37 92.32 98.36 92.32C91.34 92.32 85.64 86.76 85.64 79.93C85.64 73.09 91.34 67.53 98.36 67.53C105.37 67.53 111.07 73.09 111.07 79.93Z"/><path id="a1x6mlrMud" d="M167.94 92.32C167.94 102.31 159.72 110.43 149.59 110.43C139.46 110.43 131.23 102.31 131.23 92.32C131.23 82.32 139.46 74.21 149.59 74.21C159.72 74.21 167.94 82.32 167.94 92.32Z"/></defs><g><g><use fill="#000" fill-opacity="1" opacity="1" xlink:href="#a2gLxlzdS"/><g><filter id="shadow13324637" width="81.33" height="79.93" x="66.91" y="97.43" filterUnits="userSpaceOnUse" primitiveUnits="userSpaceOnUse"><feFlood/><feComposite in2="SourceAlpha" operator="out"/><feGaussianBlur stdDeviation="1"/><feOffset dx="4" dy="5" result="afterOffset"/><feFlood flood-color="#bcbcbc" flood-opacity=".59"/><feComposite in2="afterOffset" operator="in"/><feMorphology operator="dilate" radius="1"/><feComposite in2="SourceAlpha" operator="in"/></filter><path id="f4uZzXVkjx" fill="#fff" fill-opacity="1" d="M131.23 134.9C131.23 148.4 119.73 159.36 105.57 159.36C91.41 159.36 79.91 148.4 79.91 134.9C79.91 121.39 91.41 110.43 105.57 110.43C119.73 110.43 131.23 121.39 131.23 134.9Z" filter="url(#shadow13324637)"/></g></g><g><use fill="#000" fill-opacity="1" opacity="1" xlink:href="#cfsvtS2n"/><g><filter id="shadow4343687" width="49.42" height="49.79" x="74.64" y="56.53" filterUnits="userSpaceOnUse" primitiveUnits="userSpaceOnUse"><feFlood/><feComposite in2="SourceAlpha" operator="out"/><feGaussianBlur stdDeviation="1"/><feOffset dx="2" dy="3" result="afterOffset"/><feFlood flood-color="#c3c3c3" flood-opacity=".59"/><feComposite in2="afterOffset" operator="in"/><feMorphology operator="dilate" radius="1"/><feComposite in2="SourceAlpha" operator="in"/></filter><path id="fQeIIpjpO" fill="#fff" fill-opacity="1" d="M111.07 79.93C111.07 86.76 105.37 92.32 98.36 92.32C91.34 92.32 85.64 86.76 85.64 79.93C85.64 73.09 91.34 67.53 98.36 67.53C105.37 67.53 111.07 73.09 111.07 79.93Z" filter="url(#shadow4343687)"/></g></g><g><use fill="#000" fill-opacity="1" opacity="1" xlink:href="#a1x6mlrMud"/><g><filter id="shadow6368627" width="63.71" height="64.22" x="119.23" y="62.21" filterUnits="userSpaceOnUse" primitiveUnits="userSpaceOnUse"><feFlood/><feComposite in2="SourceAlpha" operator="out"/><feGaussianBlur stdDeviation="1"/><feOffset dx="3" dy="4" result="afterOffset"/><feFlood flood-color="#bababa" flood-opacity=".59"/><feComposite in2="afterOffset" operator="in"/><feMorphology operator="dilate" radius="1"/><feComposite in2="SourceAlpha" operator="in"/></filter><path id="bcD3QYzW" fill="#fff" fill-opacity="1" d="M167.94 92.32C167.94 102.31 159.72 110.43 149.59 110.43C139.46 110.43 131.23 102.31 131.23 92.32C131.23 82.32 139.46 74.21 149.59 74.21C159.72 74.21 167.94 82.32 167.94 92.32Z" filter="url(#shadow6368627)"/></g></g></g></svg>